<svg id="Layer_1" data-name="Layer 1" xmlns="http://www.w3.org/2000/svg" viewBox="0 0 68 61.15"><defs><style>.cls-1{fill:#234e76;}</style></defs><title>IRS Mark</title><path class="cls-1" d="M57.67,13.42c-.6-1-6.74-3.91-15.64-5.74-3.61,4-3.61,5.62-3.73,6.23s1.2,2.32,2.53,4c2.41,3.18,3.13,3.79,3.49,4.76.72,1.71-.48,5.86-1.32,9.65,0-.12-2.16-8.06-3.13-13.19a1.15,1.15,0,0,1,0-.73c-5.41-.49-9.14-.73-9.74,2.08-2.53,0-3.73.73-4,1.22-.6,1.1.12,3.3.6,4.4.36-.86,2.53-.73,3.25-.73.36.12.36.24.48.49V36.62H24L18.46,51.77C21,53,23.75,54,25.44,54s5.89-2.2,6.49-2.2S36.62,54,38.31,54a17.27,17.27,0,0,0,7-2.2L39.75,36.62H33.26V26.36c-.12-.61-.36-.85-.6-.85l3.25-.12c-.48-1.83-1.08-3.18-2-3.3a2.83,2.83,0,0,1,.84-.86H32.17c.24-1.34,3.49-.86,4.93-.73,1.44,7.21,4.21,17,4.33,17.1s2.41,1,2.65,1.1a68.58,68.58,0,0,0,3.49-13.56c1.68.61,1.08,2.81.72,5.13C46.36,42,44.8,45.54,44.44,47.74a15,15,0,0,0,2.89-.85A37.53,37.53,0,0,0,49,42.36c1-3.18,2.53-11.24,2.53-14.41a2.72,2.72,0,0,0-1.8-2.08,10.25,10.25,0,0,0,.84-1.71A14.57,14.57,0,0,0,51.3,22c.72.24,1.2.49,1.32,1.22.36,3.05.24,3.3-.24,9,0,1.71-.72,5.37-1.32,9.16-1.2,6.84-2.41,9.77-2.41,10.87A13.59,13.59,0,0,0,52,50.91a45.86,45.86,0,0,0,2.41-8.55c.36-2.2.6-4.28,1-6.47a53.44,53.44,0,0,0,.6-8.43c0-3.66.48-3.66-2.28-5.13,1.08-2.93.84-4.89.6-5.5-.48-1-1-1-3.37-.85.84.85.6,2.44.36,3.42-.48-.37-.24-1.1-2.77-1-.36-4.15-1.2-4.64-1.2-4.76-.36-.49-2.53-.24-3.13,0,.48.37,1.44,3.54,1,4.89-.24-.37-3.85-4.52-3.61-5.25a11,11,0,0,1,1.68-2.44c4.21.86,11.31,3.54,11.79,4.28a16.73,16.73,0,0,1,1.08,3.66,87.46,87.46,0,0,1,.72,16.73,98.83,98.83,0,0,1-1.44,13.8A9.28,9.28,0,0,0,59,46.39c.6-1.47.84-6.72,1-11.48a99.17,99.17,0,0,0-.48-13.19C58.75,16.1,58.39,14.64,57.67,13.42ZM25.44,50.79a32.36,32.36,0,0,1-3.25-.24L25.44,41l3,9.53A28.4,28.4,0,0,1,25.44,50.79Zm16.12-.24a32.36,32.36,0,0,1-3.25.24c-1.08,0-3-.24-3-.24l3-9.53Zm-8.3-7.33V39.55H36L31.81,51.4,27.72,39.55h2.77v2.57s0,.24.12.24c.36.24.48.24.48.24Zm.36-19.3H28.81c-.36-1.22,0-1.47,1.08-1.59C31.81,22.21,33.5,22.21,33.62,23.92Zm13.71-5.25c1.68-.24,1,2.93.48,4.15A17.6,17.6,0,0,0,45.52,19,7.88,7.88,0,0,1,47.33,18.67Z"/><path class="cls-1" d="M15.94,45.05c.84-1,3.85-4,4.33-5.74a56.56,56.56,0,0,0,1-7.94A33.24,33.24,0,0,0,16.78,35a17.92,17.92,0,0,0-1.56,2,6.85,6.85,0,0,1,.84-4.76c1-1.71,4.57-4.76,5.05-6.11.84-2.08.72-3.91,1.32-6.11a19.42,19.42,0,0,0-6.86,4.28,5.9,5.9,0,0,1,2.16-5.37,22.92,22.92,0,0,1,7.34-3.42c1.68-.49,4.45-1,5.77-1.71,2.53-1.22,4.93-4.76,5.53-6.6a18.48,18.48,0,0,0-6.74,1,4.73,4.73,0,0,0-2,2.32c-.48.73-1,1.47-1.44,2.08a7.16,7.16,0,0,1-4.45,3.18,8.7,8.7,0,0,0,2-2.69,30.11,30.11,0,0,0,1.56-4.89,20.85,20.85,0,0,0-4.21,1.34,4.61,4.61,0,0,0-2.65,2.2c-1.2,1.83-.84,7-3.25,8.92.12-2.69.72-5.62-.24-8.92-4.81,2-5.77,3.66-5.41,5.74.48,2.81,3.49,4,4.81,6.35a4.61,4.61,0,0,1,.6,1.71,6.88,6.88,0,0,0-.6,4,21.9,21.9,0,0,0-1.92-3.18C11,24.53,8.24,21.6,8.24,21.6c-.6,7.45.36,9,.72,9.65,1,1.59,4.45,4,5.17,5.62l.48,1c.12.24-.72,1.22-.6,2.56.12.49.24,1,.36,1.71a32.8,32.8,0,0,0-2.53-3.18A19.59,19.59,0,0,0,8,35.65a44.32,44.32,0,0,0,.48,5.74c.24,2.08.36,4,2.16,5.86,1.44,1.47,6.25,3.54,7.34,3.91,0,0-.24-1-.72-2.32S15.94,45.05,15.94,45.05Z"/></svg>